<svg width="68" height="94" viewBox="0 0 68 94" fill="none" xmlns="http://www.w3.org/2000/svg">
<path d="M64 64.5V68.5H68V64.5H64ZM1.17157 61.6716C-0.390524 63.2337 -0.390524 65.7663 1.17157 67.3284L26.6274 92.7843C28.1895 94.3464 30.7222 94.3464 32.2843 92.7843C33.8464 91.2222 33.8464 88.6895 32.2843 87.1274L9.65685 64.5L32.2843 41.8726C33.8464 40.3105 33.8464 37.7778 32.2843 36.2157C30.7222 34.6536 28.1895 34.6536 26.6274 36.2157L1.17157 61.6716ZM60 0.5L60 64.5H68V0.5L60 0.5ZM64 60.5L4 60.5V68.5H64V60.5Z" fill="white"/>
</svg>
